<?xml version="1.0" encoding="utf-8" standalone="no"?>
<!DOCTYPE svg PUBLIC "-//W3C//DTD SVG 1.1//EN"
  "http://www.w3.org/Graphics/SVG/1.1/DTD/svg11.dtd">
<svg xmlns:xlink="http://www.w3.org/1999/xlink" width="144pt" height="180pt" viewBox="0 0 144 180" xmlns="http://www.w3.org/2000/svg" version="1.1">
 <metadata>
  <rdf:RDF xmlns:dc="http://purl.org/dc/elements/1.1/" xmlns:cc="http://creativecommons.org/ns#" xmlns:rdf="http://www.w3.org/1999/02/22-rdf-syntax-ns#">
   <cc:Work>
    <dc:type rdf:resource="http://purl.org/dc/dcmitype/StillImage"/>
    <dc:date>2026-02-20T21:25:48.952701</dc:date>
    <dc:format>image/svg+xml</dc:format>
    <dc:creator>
     <cc:Agent>
      <dc:title>Matplotlib v3.10.8, https://matplotlib.org/</dc:title>
     </cc:Agent>
    </dc:creator>
   </cc:Work>
  </rdf:RDF>
 </metadata>
 <defs>
  <style type="text/css">*{stroke-linejoin: round; stroke-linecap: butt}</style>
 </defs>
 <g id="figure_1">
  <g id="patch_1">
   <path d="M 0 180 
L 144 180 
L 144 0 
L 0 0 
z
" style="fill: #ffffff"/>
  </g>
  <g id="axes_1">
   <g id="patch_2">
    <path d="M 18 87.6 
L 129.6 87.6 
L 129.6 21.6 
L 18 21.6 
z
" style="fill: #ffffff"/>
   </g>
   <g id="matplotlib.axis_1">
    <g id="xtick_1"/>
    <g id="xtick_2"/>
    <g id="xtick_3"/>
    <g id="xtick_4"/>
   </g>
   <g id="matplotlib.axis_2">
    <g id="ytick_1">
     <g id="line2d_1">
      <defs>
       <path id="m5adf3cc0de" d="M 0 0 
L -3 0 
" style="stroke: #000000; stroke-width: 0.8"/>
      </defs>
      <g>
       <use xlink:href="#m5adf3cc0de" x="18" y="85.470968" style="stroke: #000000; stroke-width: 0.8"/>
      </g>
     </g>
     <g id="text_1">
      <text style="font-size: 7px; font-family: 'DejaVu Sans', 'Bitstream Vera Sans', 'Computer Modern Sans Serif', 'Lucida Grande', 'Verdana', 'Geneva', 'Lucid', 'Arial', 'Helvetica', 'Avant Garde', sans-serif; text-anchor: end" x="14" y="88.130421" transform="rotate(-0 14 88.130421)">1</text>
     </g>
    </g>
    <g id="ytick_2">
     <g id="line2d_2">
      <g>
       <use xlink:href="#m5adf3cc0de" x="18" y="66.309677" style="stroke: #000000; stroke-width: 0.8"/>
      </g>
     </g>
     <g id="text_2">
      <text style="font-size: 7px; font-family: 'DejaVu Sans', 'Bitstream Vera Sans', 'Computer Modern Sans Serif', 'Lucida Grande', 'Verdana', 'Geneva', 'Lucid', 'Arial', 'Helvetica', 'Avant Garde', sans-serif; text-anchor: end" x="14" y="68.969131" transform="rotate(-0 14 68.969131)">10</text>
     </g>
    </g>
    <g id="ytick_3">
     <g id="line2d_3">
      <g>
       <use xlink:href="#m5adf3cc0de" x="18" y="45.019355" style="stroke: #000000; stroke-width: 0.8"/>
      </g>
     </g>
     <g id="text_3">
      <text style="font-size: 7px; font-family: 'DejaVu Sans', 'Bitstream Vera Sans', 'Computer Modern Sans Serif', 'Lucida Grande', 'Verdana', 'Geneva', 'Lucid', 'Arial', 'Helvetica', 'Avant Garde', sans-serif; text-anchor: end" x="14" y="47.678808" transform="rotate(-0 14 47.678808)">20</text>
     </g>
    </g>
    <g id="ytick_4">
     <g id="line2d_4">
      <g>
       <use xlink:href="#m5adf3cc0de" x="18" y="23.729032" style="stroke: #000000; stroke-width: 0.8"/>
      </g>
     </g>
     <g id="text_4">
      <text style="font-size: 7px; font-family: 'DejaVu Sans', 'Bitstream Vera Sans', 'Computer Modern Sans Serif', 'Lucida Grande', 'Verdana', 'Geneva', 'Lucid', 'Arial', 'Helvetica', 'Avant Garde', sans-serif; text-anchor: end" x="14" y="26.388485" transform="rotate(-0 14 26.388485)">30</text>
     </g>
    </g>
    <g id="text_5">
     <text style="font-size: 8px; font-family: 'DejaVu Sans', 'Bitstream Vera Sans', 'Computer Modern Sans Serif', 'Lucida Grande', 'Verdana', 'Geneva', 'Lucid', 'Arial', 'Helvetica', 'Avant Garde', sans-serif; text-anchor: middle" x="1.92875" y="54.6" transform="rotate(-90 1.92875 54.6)">Trials (re-sorted)</text>
    </g>
   </g>
   <g id="EventCollection_1">
    <path d="M 71.225648 84.406452 
L 71.225648 86.535484 
" clip-path="url(#p855f0b6967)" style="fill: none; stroke: #f5a21e"/>
    <path d="M 118.810224 84.406452 
L 118.810224 86.535484 
" clip-path="url(#p855f0b6967)" style="fill: none; stroke: #f5a21e"/>
   </g>
   <g id="EventCollection_2">
    <path d="M 23.198161 82.277419 
L 23.198161 84.406452 
" clip-path="url(#p855f0b6967)" style="fill: none; stroke: #f5a21e"/>
    <path d="M 26.521748 82.277419 
L 26.521748 84.406452 
" clip-path="url(#p855f0b6967)" style="fill: none; stroke: #f5a21e"/>
    <path d="M 89.430398 82.277419 
L 89.430398 84.406452 
" clip-path="url(#p855f0b6967)" style="fill: none; stroke: #f5a21e"/>
    <path d="M 97.457461 82.277419 
L 97.457461 84.406452 
" clip-path="url(#p855f0b6967)" style="fill: none; stroke: #f5a21e"/>
    <path d="M 125.048236 82.277419 
L 125.048236 84.406452 
" clip-path="url(#p855f0b6967)" style="fill: none; stroke: #f5a21e"/>
   </g>
   <g id="EventCollection_3">
    <path d="M 35.625258 80.148387 
L 35.625258 82.277419 
" clip-path="url(#p855f0b6967)" style="fill: none; stroke: #f5a21e"/>
    <path d="M 41.644683 80.148387 
L 41.644683 82.277419 
" clip-path="url(#p855f0b6967)" style="fill: none; stroke: #f5a21e"/>
    <path d="M 73.105383 80.148387 
L 73.105383 82.277419 
" clip-path="url(#p855f0b6967)" style="fill: none; stroke: #f5a21e"/>
    <path d="M 80.576771 80.148387 
L 80.576771 82.277419 
" clip-path="url(#p855f0b6967)" style="fill: none; stroke: #f5a21e"/>
    <path d="M 81.965958 80.148387 
L 81.965958 82.277419 
" clip-path="url(#p855f0b6967)" style="fill: none; stroke: #f5a21e"/>
    <path d="M 87.212321 80.148387 
L 87.212321 82.277419 
" clip-path="url(#p855f0b6967)" style="fill: none; stroke: #f5a21e"/>
    <path d="M 87.899358 80.148387 
L 87.899358 82.277419 
" clip-path="url(#p855f0b6967)" style="fill: none; stroke: #f5a21e"/>
    <path d="M 88.696833 80.148387 
L 88.696833 82.277419 
" clip-path="url(#p855f0b6967)" style="fill: none; stroke: #f5a21e"/>
    <path d="M 98.346746 80.148387 
L 98.346746 82.277419 
" clip-path="url(#p855f0b6967)" style="fill: none; stroke: #f5a21e"/>
    <path d="M 102.866546 80.148387 
L 102.866546 82.277419 
" clip-path="url(#p855f0b6967)" style="fill: none; stroke: #f5a21e"/>
   </g>
   <g id="EventCollection_4">
    <path d="M 50.151886 78.019355 
L 50.151886 80.148387 
" clip-path="url(#p855f0b6967)" style="fill: none; stroke: #f5a21e"/>
    <path d="M 56.600236 78.019355 
L 56.600236 80.148387 
" clip-path="url(#p855f0b6967)" style="fill: none; stroke: #f5a21e"/>
    <path d="M 62.689411 78.019355 
L 62.689411 80.148387 
" clip-path="url(#p855f0b6967)" style="fill: none; stroke: #f5a21e"/>
    <path d="M 103.666373 78.019355 
L 103.666373 80.148387 
" clip-path="url(#p855f0b6967)" style="fill: none; stroke: #f5a21e"/>
    <path d="M 119.449636 78.019355 
L 119.449636 80.148387 
" clip-path="url(#p855f0b6967)" style="fill: none; stroke: #f5a21e"/>
   </g>
   <g id="EventCollection_5">
    <path d="M 26.074176 75.890323 
L 26.074176 78.019355 
" clip-path="url(#p855f0b6967)" style="fill: none; stroke: #f5a21e"/>
    <path d="M 92.826052 75.890323 
L 92.826052 78.019355 
" clip-path="url(#p855f0b6967)" style="fill: none; stroke: #f5a21e"/>
    <path d="M 107.172464 75.890323 
L 107.172464 78.019355 
" clip-path="url(#p855f0b6967)" style="fill: none; stroke: #f5a21e"/>
   </g>
   <g id="EventCollection_6">
    <path d="M 29.172211 73.76129 
L 29.172211 75.890323 
" clip-path="url(#p855f0b6967)" style="fill: none; stroke: #f5a21e"/>
    <path d="M 76.830061 73.76129 
L 76.830061 75.890323 
" clip-path="url(#p855f0b6967)" style="fill: none; stroke: #f5a21e"/>
    <path d="M 86.706661 73.76129 
L 86.706661 75.890323 
" clip-path="url(#p855f0b6967)" style="fill: none; stroke: #f5a21e"/>
    <path d="M 90.105811 73.76129 
L 90.105811 75.890323 
" clip-path="url(#p855f0b6967)" style="fill: none; stroke: #f5a21e"/>
    <path d="M 90.570811 73.76129 
L 90.570811 75.890323 
" clip-path="url(#p855f0b6967)" style="fill: none; stroke: #f5a21e"/>
    <path d="M 92.555198 73.76129 
L 92.555198 75.890323 
" clip-path="url(#p855f0b6967)" style="fill: none; stroke: #f5a21e"/>
    <path d="M 97.091236 73.76129 
L 97.091236 75.890323 
" clip-path="url(#p855f0b6967)" style="fill: none; stroke: #f5a21e"/>
    <path d="M 122.325624 73.76129 
L 122.325624 75.890323 
" clip-path="url(#p855f0b6967)" style="fill: none; stroke: #f5a21e"/>
   </g>
   <g id="EventCollection_7">
    <path d="M 33.758311 71.632258 
L 33.758311 73.76129 
" clip-path="url(#p855f0b6967)" style="fill: none; stroke: #f5a21e"/>
    <path d="M 56.533973 71.632258 
L 56.533973 73.76129 
" clip-path="url(#p855f0b6967)" style="fill: none; stroke: #f5a21e"/>
   </g>
   <g id="EventCollection_8">
    <path d="M 30.941554 69.503226 
L 30.941554 71.632258 
" clip-path="url(#p855f0b6967)" style="fill: none; stroke: #f5a21e"/>
    <path d="M 60.431855 69.503226 
L 60.431855 71.632258 
" clip-path="url(#p855f0b6967)" style="fill: none; stroke: #f5a21e"/>
    <path d="M 72.500929 69.503226 
L 72.500929 71.632258 
" clip-path="url(#p855f0b6967)" style="fill: none; stroke: #f5a21e"/>
    <path d="M 99.911517 69.503226 
L 99.911517 71.632258 
" clip-path="url(#p855f0b6967)" style="fill: none; stroke: #f5a21e"/>
    <path d="M 112.56413 69.503226 
L 112.56413 71.632258 
" clip-path="url(#p855f0b6967)" style="fill: none; stroke: #f5a21e"/>
    <path d="M 119.296167 69.503226 
L 119.296167 71.632258 
" clip-path="url(#p855f0b6967)" style="fill: none; stroke: #f5a21e"/>
    <path d="M 122.555817 69.503226 
L 122.555817 71.632258 
" clip-path="url(#p855f0b6967)" style="fill: none; stroke: #f5a21e"/>
   </g>
   <g id="EventCollection_9">
    <path d="M 53.742848 67.374194 
L 53.742848 69.503226 
" clip-path="url(#p855f0b6967)" style="fill: none; stroke: #f5a21e"/>
    <path d="M 80.567498 67.374194 
L 80.567498 69.503226 
" clip-path="url(#p855f0b6967)" style="fill: none; stroke: #f5a21e"/>
    <path d="M 81.590498 67.374194 
L 81.590498 69.503226 
" clip-path="url(#p855f0b6967)" style="fill: none; stroke: #f5a21e"/>
    <path d="M 86.155636 67.374194 
L 86.155636 69.503226 
" clip-path="url(#p855f0b6967)" style="fill: none; stroke: #f5a21e"/>
    <path d="M 90.362723 67.374194 
L 90.362723 69.503226 
" clip-path="url(#p855f0b6967)" style="fill: none; stroke: #f5a21e"/>
    <path d="M 102.020273 67.374194 
L 102.020273 69.503226 
" clip-path="url(#p855f0b6967)" style="fill: none; stroke: #f5a21e"/>
    <path d="M 107.081798 67.374194 
L 107.081798 69.503226 
" clip-path="url(#p855f0b6967)" style="fill: none; stroke: #f5a21e"/>
   </g>
   <g id="EventCollection_10">
    <path d="M 36.076336 65.245161 
L 36.076336 67.374194 
" clip-path="url(#p855f0b6967)" style="fill: none; stroke: #f5a21e"/>
    <path d="M 47.418848 65.245161 
L 47.418848 67.374194 
" clip-path="url(#p855f0b6967)" style="fill: none; stroke: #f5a21e"/>
    <path d="M 68.634436 65.245161 
L 68.634436 67.374194 
" clip-path="url(#p855f0b6967)" style="fill: none; stroke: #f5a21e"/>
    <path d="M 78.337823 65.245161 
L 78.337823 67.374194 
" clip-path="url(#p855f0b6967)" style="fill: none; stroke: #f5a21e"/>
    <path d="M 82.807636 65.245161 
L 82.807636 67.374194 
" clip-path="url(#p855f0b6967)" style="fill: none; stroke: #f5a21e"/>
    <path d="M 116.428298 65.245161 
L 116.428298 67.374194 
" clip-path="url(#p855f0b6967)" style="fill: none; stroke: #f5a21e"/>
   </g>
   <g id="EventCollection_11">
    <path d="M 52.893051 63.116129 
L 52.893051 65.245161 
" clip-path="url(#p855f0b6967)" style="fill: none; stroke: #f5a21e"/>
    <path d="M 89.265314 63.116129 
L 89.265314 65.245161 
" clip-path="url(#p855f0b6967)" style="fill: none; stroke: #f5a21e"/>
    <path d="M 114.547364 63.116129 
L 114.547364 65.245161 
" clip-path="url(#p855f0b6967)" style="fill: none; stroke: #f5a21e"/>
    <path d="M 122.856914 63.116129 
L 122.856914 65.245161 
" clip-path="url(#p855f0b6967)" style="fill: none; stroke: #f5a21e"/>
   </g>
   <g id="EventCollection_12">
    <path d="M 33.227039 60.987097 
L 33.227039 63.116129 
" clip-path="url(#p855f0b6967)" style="fill: none; stroke: #f5a21e"/>
    <path d="M 38.435039 60.987097 
L 38.435039 63.116129 
" clip-path="url(#p855f0b6967)" style="fill: none; stroke: #f5a21e"/>
    <path d="M 86.881027 60.987097 
L 86.881027 63.116129 
" clip-path="url(#p855f0b6967)" style="fill: none; stroke: #f5a21e"/>
    <path d="M 105.756539 60.987097 
L 105.756539 63.116129 
" clip-path="url(#p855f0b6967)" style="fill: none; stroke: #f5a21e"/>
    <path d="M 107.579339 60.987097 
L 107.579339 63.116129 
" clip-path="url(#p855f0b6967)" style="fill: none; stroke: #f5a21e"/>
    <path d="M 116.149289 60.987097 
L 116.149289 63.116129 
" clip-path="url(#p855f0b6967)" style="fill: none; stroke: #f5a21e"/>
   </g>
   <g id="EventCollection_13">
    <path d="M 37.37482 58.858065 
L 37.37482 60.987097 
" clip-path="url(#p855f0b6967)" style="fill: none; stroke: #f5a21e"/>
    <path d="M 68.439145 58.858065 
L 68.439145 60.987097 
" clip-path="url(#p855f0b6967)" style="fill: none; stroke: #f5a21e"/>
    <path d="M 74.527158 58.858065 
L 74.527158 60.987097 
" clip-path="url(#p855f0b6967)" style="fill: none; stroke: #f5a21e"/>
    <path d="M 85.301208 58.858065 
L 85.301208 60.987097 
" clip-path="url(#p855f0b6967)" style="fill: none; stroke: #f5a21e"/>
    <path d="M 86.468358 58.858065 
L 86.468358 60.987097 
" clip-path="url(#p855f0b6967)" style="fill: none; stroke: #f5a21e"/>
    <path d="M 95.691633 58.858065 
L 95.691633 60.987097 
" clip-path="url(#p855f0b6967)" style="fill: none; stroke: #f5a21e"/>
    <path d="M 99.799908 58.858065 
L 99.799908 60.987097 
" clip-path="url(#p855f0b6967)" style="fill: none; stroke: #f5a21e"/>
    <path d="M 108.85927 58.858065 
L 108.85927 60.987097 
" clip-path="url(#p855f0b6967)" style="fill: none; stroke: #f5a21e"/>
    <path d="M 119.257833 58.858065 
L 119.257833 60.987097 
" clip-path="url(#p855f0b6967)" style="fill: none; stroke: #f5a21e"/>
    <path d="M 128.119533 58.858065 
L 128.119533 60.987097 
" clip-path="url(#p855f0b6967)" style="fill: none; stroke: #f5a21e"/>
   </g>
   <g id="EventCollection_14">
    <path d="M 28.327083 56.729032 
L 28.327083 58.858065 
" clip-path="url(#p855f0b6967)" style="fill: none; stroke: #f5a21e"/>
    <path d="M 43.20127 56.729032 
L 43.20127 58.858065 
" clip-path="url(#p855f0b6967)" style="fill: none; stroke: #f5a21e"/>
    <path d="M 49.839145 56.729032 
L 49.839145 58.858065 
" clip-path="url(#p855f0b6967)" style="fill: none; stroke: #f5a21e"/>
    <path d="M 55.166883 56.729032 
L 55.166883 58.858065 
" clip-path="url(#p855f0b6967)" style="fill: none; stroke: #f5a21e"/>
    <path d="M 55.242445 56.729032 
L 55.242445 58.858065 
" clip-path="url(#p855f0b6967)" style="fill: none; stroke: #f5a21e"/>
    <path d="M 57.380283 56.729032 
L 57.380283 58.858065 
" clip-path="url(#p855f0b6967)" style="fill: none; stroke: #f5a21e"/>
    <path d="M 58.156833 56.729032 
L 58.156833 58.858065 
" clip-path="url(#p855f0b6967)" style="fill: none; stroke: #f5a21e"/>
    <path d="M 61.618758 56.729032 
L 61.618758 58.858065 
" clip-path="url(#p855f0b6967)" style="fill: none; stroke: #f5a21e"/>
    <path d="M 69.596995 56.729032 
L 69.596995 58.858065 
" clip-path="url(#p855f0b6967)" style="fill: none; stroke: #f5a21e"/>
    <path d="M 79.081833 56.729032 
L 79.081833 58.858065 
" clip-path="url(#p855f0b6967)" style="fill: none; stroke: #f5a21e"/>
    <path d="M 128.870508 56.729032 
L 128.870508 58.858065 
" clip-path="url(#p855f0b6967)" style="fill: none; stroke: #f5a21e"/>
   </g>
   <g id="EventCollection_15">
    <path d="M 31.598358 54.6 
L 31.598358 56.729032 
" clip-path="url(#p855f0b6967)" style="fill: none; stroke: #f5a21e"/>
    <path d="M 57.506995 54.6 
L 57.506995 56.729032 
" clip-path="url(#p855f0b6967)" style="fill: none; stroke: #f5a21e"/>
    <path d="M 74.656195 54.6 
L 74.656195 56.729032 
" clip-path="url(#p855f0b6967)" style="fill: none; stroke: #f5a21e"/>
    <path d="M 77.05792 54.6 
L 77.05792 56.729032 
" clip-path="url(#p855f0b6967)" style="fill: none; stroke: #f5a21e"/>
    <path d="M 77.20672 54.6 
L 77.20672 56.729032 
" clip-path="url(#p855f0b6967)" style="fill: none; stroke: #f5a21e"/>
    <path d="M 79.831645 54.6 
L 79.831645 56.729032 
" clip-path="url(#p855f0b6967)" style="fill: none; stroke: #f5a21e"/>
    <path d="M 83.06107 54.6 
L 83.06107 56.729032 
" clip-path="url(#p855f0b6967)" style="fill: none; stroke: #f5a21e"/>
    <path d="M 97.295883 54.6 
L 97.295883 56.729032 
" clip-path="url(#p855f0b6967)" style="fill: none; stroke: #f5a21e"/>
    <path d="M 100.613658 54.6 
L 100.613658 56.729032 
" clip-path="url(#p855f0b6967)" style="fill: none; stroke: #f5a21e"/>
   </g>
   <g id="EventCollection_16">
    <path d="M 61.639673 52.470968 
L 61.639673 54.6 
" clip-path="url(#p855f0b6967)" style="fill: none; stroke: #134b64"/>
    <path d="M 115.983024 52.470968 
L 115.983024 54.6 
" clip-path="url(#p855f0b6967)" style="fill: none; stroke: #134b64"/>
   </g>
   <g id="EventCollection_17">
    <path d="M 33.436289 50.341935 
L 33.436289 52.470968 
" clip-path="url(#p855f0b6967)" style="fill: none; stroke: #134b64"/>
    <path d="M 34.623201 50.341935 
L 34.623201 52.470968 
" clip-path="url(#p855f0b6967)" style="fill: none; stroke: #134b64"/>
    <path d="M 37.514339 50.341935 
L 37.514339 52.470968 
" clip-path="url(#p855f0b6967)" style="fill: none; stroke: #134b64"/>
    <path d="M 49.368351 50.341935 
L 49.368351 52.470968 
" clip-path="url(#p855f0b6967)" style="fill: none; stroke: #134b64"/>
    <path d="M 50.844726 50.341935 
L 50.844726 52.470968 
" clip-path="url(#p855f0b6967)" style="fill: none; stroke: #134b64"/>
    <path d="M 55.447027 50.341935 
L 55.447027 52.470968 
" clip-path="url(#p855f0b6967)" style="fill: none; stroke: #134b64"/>
    <path d="M 67.471927 50.341935 
L 67.471927 52.470968 
" clip-path="url(#p855f0b6967)" style="fill: none; stroke: #134b64"/>
    <path d="M 68.755327 50.341935 
L 68.755327 52.470968 
" clip-path="url(#p855f0b6967)" style="fill: none; stroke: #134b64"/>
    <path d="M 72.369539 50.341935 
L 72.369539 52.470968 
" clip-path="url(#p855f0b6967)" style="fill: none; stroke: #134b64"/>
   </g>
   <g id="EventCollection_18">
    <path d="M 25.966073 48.212903 
L 25.966073 50.341935 
" clip-path="url(#p855f0b6967)" style="fill: none; stroke: #134b64"/>
    <path d="M 34.916161 48.212903 
L 34.916161 50.341935 
" clip-path="url(#p855f0b6967)" style="fill: none; stroke: #134b64"/>
    <path d="M 49.038173 48.212903 
L 49.038173 50.341935 
" clip-path="url(#p855f0b6967)" style="fill: none; stroke: #134b64"/>
    <path d="M 56.115473 48.212903 
L 56.115473 50.341935 
" clip-path="url(#p855f0b6967)" style="fill: none; stroke: #134b64"/>
    <path d="M 87.405323 48.212903 
L 87.405323 50.341935 
" clip-path="url(#p855f0b6967)" style="fill: none; stroke: #134b64"/>
   </g>
   <g id="EventCollection_19">
    <path d="M 30.671827 46.083871 
L 30.671827 48.212903 
" clip-path="url(#p855f0b6967)" style="fill: none; stroke: #134b64"/>
    <path d="M 49.786814 46.083871 
L 49.786814 48.212903 
" clip-path="url(#p855f0b6967)" style="fill: none; stroke: #134b64"/>
    <path d="M 57.504652 46.083871 
L 57.504652 48.212903 
" clip-path="url(#p855f0b6967)" style="fill: none; stroke: #134b64"/>
    <path d="M 61.099102 46.083871 
L 61.099102 48.212903 
" clip-path="url(#p855f0b6967)" style="fill: none; stroke: #134b64"/>
    <path d="M 95.342864 46.083871 
L 95.342864 48.212903 
" clip-path="url(#p855f0b6967)" style="fill: none; stroke: #134b64"/>
    <path d="M 108.445364 46.083871 
L 108.445364 48.212903 
" clip-path="url(#p855f0b6967)" style="fill: none; stroke: #134b64"/>
    <path d="M 110.360002 46.083871 
L 110.360002 48.212903 
" clip-path="url(#p855f0b6967)" style="fill: none; stroke: #134b64"/>
    <path d="M 111.439964 46.083871 
L 111.439964 48.212903 
" clip-path="url(#p855f0b6967)" style="fill: none; stroke: #134b64"/>
    <path d="M 119.437964 46.083871 
L 119.437964 48.212903 
" clip-path="url(#p855f0b6967)" style="fill: none; stroke: #134b64"/>
    <path d="M 128.211352 46.083871 
L 128.211352 48.212903 
" clip-path="url(#p855f0b6967)" style="fill: none; stroke: #134b64"/>
   </g>
   <g id="EventCollection_20">
    <path d="M 22.191454 43.954839 
L 22.191454 46.083871 
" clip-path="url(#p855f0b6967)" style="fill: none; stroke: #134b64"/>
    <path d="M 69.837642 43.954839 
L 69.837642 46.083871 
" clip-path="url(#p855f0b6967)" style="fill: none; stroke: #134b64"/>
   </g>
   <g id="EventCollection_21">
    <path d="M 57.518602 41.825806 
L 57.518602 43.954839 
" clip-path="url(#p855f0b6967)" style="fill: none; stroke: #134b64"/>
    <path d="M 116.871202 41.825806 
L 116.871202 43.954839 
" clip-path="url(#p855f0b6967)" style="fill: none; stroke: #134b64"/>
   </g>
   <g id="EventCollection_22">
    <path d="M 38.85818 39.696774 
L 38.85818 41.825806 
" clip-path="url(#p855f0b6967)" style="fill: none; stroke: #134b64"/>
    <path d="M 52.73843 39.696774 
L 52.73843 41.825806 
" clip-path="url(#p855f0b6967)" style="fill: none; stroke: #134b64"/>
    <path d="M 53.771892 39.696774 
L 53.771892 41.825806 
" clip-path="url(#p855f0b6967)" style="fill: none; stroke: #134b64"/>
    <path d="M 70.342167 39.696774 
L 70.342167 41.825806 
" clip-path="url(#p855f0b6967)" style="fill: none; stroke: #134b64"/>
   </g>
   <g id="EventCollection_23">
    <path d="M 27.047161 37.567742 
L 27.047161 39.696774 
" clip-path="url(#p855f0b6967)" style="fill: none; stroke: #134b64"/>
    <path d="M 89.464111 37.567742 
L 89.464111 39.696774 
" clip-path="url(#p855f0b6967)" style="fill: none; stroke: #134b64"/>
    <path d="M 128.197411 37.567742 
L 128.197411 39.696774 
" clip-path="url(#p855f0b6967)" style="fill: none; stroke: #134b64"/>
   </g>
   <g id="EventCollection_24">
    <path d="M 23.670098 35.43871 
L 23.670098 37.567742 
" clip-path="url(#p855f0b6967)" style="fill: none; stroke: #134b64"/>
    <path d="M 40.656548 35.43871 
L 40.656548 37.567742 
" clip-path="url(#p855f0b6967)" style="fill: none; stroke: #134b64"/>
   </g>
   <g id="EventCollection_25">
    <path d="M 62.560392 33.309677 
L 62.560392 35.43871 
" clip-path="url(#p855f0b6967)" style="fill: none; stroke: #134b64"/>
   </g>
   <g id="EventCollection_26"/>
   <g id="EventCollection_27">
    <path d="M 34.968445 29.051613 
L 34.968445 31.180645 
" clip-path="url(#p855f0b6967)" style="fill: none; stroke: #134b64"/>
    <path d="M 52.62217 29.051613 
L 52.62217 31.180645 
" clip-path="url(#p855f0b6967)" style="fill: none; stroke: #134b64"/>
   </g>
   <g id="EventCollection_28">
    <path d="M 18.357492 26.922581 
L 18.357492 29.051613 
" clip-path="url(#p855f0b6967)" style="fill: none; stroke: #134b64"/>
    <path d="M 45.22868 26.922581 
L 45.22868 29.051613 
" clip-path="url(#p855f0b6967)" style="fill: none; stroke: #134b64"/>
    <path d="M 62.896355 26.922581 
L 62.896355 29.051613 
" clip-path="url(#p855f0b6967)" style="fill: none; stroke: #134b64"/>
    <path d="M 101.527355 26.922581 
L 101.527355 29.051613 
" clip-path="url(#p855f0b6967)" style="fill: none; stroke: #134b64"/>
   </g>
   <g id="EventCollection_29">
    <path d="M 29.594208 24.793548 
L 29.594208 26.922581 
" clip-path="url(#p855f0b6967)" style="fill: none; stroke: #134b64"/>
    <path d="M 32.916633 24.793548 
L 32.916633 26.922581 
" clip-path="url(#p855f0b6967)" style="fill: none; stroke: #134b64"/>
    <path d="M 39.105783 24.793548 
L 39.105783 26.922581 
" clip-path="url(#p855f0b6967)" style="fill: none; stroke: #134b64"/>
    <path d="M 44.899683 24.793548 
L 44.899683 26.922581 
" clip-path="url(#p855f0b6967)" style="fill: none; stroke: #134b64"/>
    <path d="M 54.20782 24.793548 
L 54.20782 26.922581 
" clip-path="url(#p855f0b6967)" style="fill: none; stroke: #134b64"/>
    <path d="M 54.81697 24.793548 
L 54.81697 26.922581 
" clip-path="url(#p855f0b6967)" style="fill: none; stroke: #134b64"/>
    <path d="M 59.441395 24.793548 
L 59.441395 26.922581 
" clip-path="url(#p855f0b6967)" style="fill: none; stroke: #134b64"/>
    <path d="M 109.182408 24.793548 
L 109.182408 26.922581 
" clip-path="url(#p855f0b6967)" style="fill: none; stroke: #134b64"/>
    <path d="M 127.295321 24.793548 
L 127.295321 26.922581 
" clip-path="url(#p855f0b6967)" style="fill: none; stroke: #134b64"/>
   </g>
   <g id="EventCollection_30">
    <path d="M 20.486039 22.664516 
L 20.486039 24.793548 
" clip-path="url(#p855f0b6967)" style="fill: none; stroke: #134b64"/>
    <path d="M 43.559339 22.664516 
L 43.559339 24.793548 
" clip-path="url(#p855f0b6967)" style="fill: none; stroke: #134b64"/>
    <path d="M 63.568252 22.664516 
L 63.568252 24.793548 
" clip-path="url(#p855f0b6967)" style="fill: none; stroke: #134b64"/>
    <path d="M 71.610427 22.664516 
L 71.610427 24.793548 
" clip-path="url(#p855f0b6967)" style="fill: none; stroke: #134b64"/>
   </g>
   <g id="line2d_5">
    <path d="M 55.2 87.6 
L 55.2 21.6 
" clip-path="url(#p855f0b6967)" style="fill: none; stroke-dasharray: 4.07,1.76; stroke-dashoffset: 0; stroke: #ff0000; stroke-width: 1.1"/>
   </g>
   <g id="patch_3">
    <path d="M 18 87.6 
L 18 21.6 
" style="fill: none; stroke: #000000; stroke-width: 0.8; stroke-linejoin: miter; stroke-linecap: square"/>
   </g>
   <g id="text_6">
    <text style="font-size: 6px; font-family: 'DejaVu Sans', 'Bitstream Vera Sans', 'Computer Modern Sans Serif', 'Lucida Grande', 'Verdana', 'Geneva', 'Lucid', 'Arial', 'Helvetica', 'Avant Garde', sans-serif" transform="translate(58.274062 2.162625)">P58CS, R1</text>
    <text style="font-size: 6px; font-family: 'DejaVu Sans', 'Bitstream Vera Sans', 'Computer Modern Sans Serif', 'Lucida Grande', 'Verdana', 'Geneva', 'Lucid', 'Arial', 'Helvetica', 'Avant Garde', sans-serif" transform="translate(58.757344 8.881313)">Right ACC</text>
    <text style="font-size: 6px; font-family: 'DejaVu Sans', 'Bitstream Vera Sans', 'Computer Modern Sans Serif', 'Lucida Grande', 'Verdana', 'Geneva', 'Lucid', 'Arial', 'Helvetica', 'Avant Garde', sans-serif" transform="translate(52.8075 15.6)">1.689, 0.0002</text>
   </g>
  </g>
  <g id="axes_2">
   <g id="patch_4">
    <path d="M 18 160.2 
L 129.6 160.2 
L 129.6 94.2 
L 18 94.2 
z
" style="fill: #ffffff"/>
   </g>
   <g id="matplotlib.axis_3">
    <g id="xtick_5">
     <g id="line2d_6">
      <defs>
       <path id="m7420b7be5b" d="M 0 0 
L 0 3 
" style="stroke: #000000; stroke-width: 0.8"/>
      </defs>
      <g>
       <use xlink:href="#m7420b7be5b" x="18" y="160.2" style="stroke: #000000; stroke-width: 0.8"/>
      </g>
     </g>
     <g id="text_7">
      <text style="font-size: 7px; font-family: 'DejaVu Sans', 'Bitstream Vera Sans', 'Computer Modern Sans Serif', 'Lucida Grande', 'Verdana', 'Geneva', 'Lucid', 'Arial', 'Helvetica', 'Avant Garde', sans-serif; text-anchor: middle" x="18" y="169.518906" transform="rotate(-0 18 169.518906)">−1</text>
     </g>
    </g>
    <g id="xtick_6">
     <g id="line2d_7">
      <g>
       <use xlink:href="#m7420b7be5b" x="55.2" y="160.2" style="stroke: #000000; stroke-width: 0.8"/>
      </g>
     </g>
     <g id="text_8">
      <text style="font-size: 7px; font-family: 'DejaVu Sans', 'Bitstream Vera Sans', 'Computer Modern Sans Serif', 'Lucida Grande', 'Verdana', 'Geneva', 'Lucid', 'Arial', 'Helvetica', 'Avant Garde', sans-serif; text-anchor: middle" x="55.2" y="169.518906" transform="rotate(-0 55.2 169.518906)">0</text>
     </g>
    </g>
    <g id="xtick_7">
     <g id="line2d_8">
      <g>
       <use xlink:href="#m7420b7be5b" x="92.4" y="160.2" style="stroke: #000000; stroke-width: 0.8"/>
      </g>
     </g>
     <g id="text_9">
      <text style="font-size: 7px; font-family: 'DejaVu Sans', 'Bitstream Vera Sans', 'Computer Modern Sans Serif', 'Lucida Grande', 'Verdana', 'Geneva', 'Lucid', 'Arial', 'Helvetica', 'Avant Garde', sans-serif; text-anchor: middle" x="92.4" y="169.518906" transform="rotate(-0 92.4 169.518906)">1</text>
     </g>
    </g>
    <g id="xtick_8">
     <g id="line2d_9">
      <g>
       <use xlink:href="#m7420b7be5b" x="129.6" y="160.2" style="stroke: #000000; stroke-width: 0.8"/>
      </g>
     </g>
     <g id="text_10">
      <text style="font-size: 7px; font-family: 'DejaVu Sans', 'Bitstream Vera Sans', 'Computer Modern Sans Serif', 'Lucida Grande', 'Verdana', 'Geneva', 'Lucid', 'Arial', 'Helvetica', 'Avant Garde', sans-serif; text-anchor: middle" x="129.6" y="169.518906" transform="rotate(-0 129.6 169.518906)">2</text>
     </g>
    </g>
    <g id="text_11">
     <text style="font-size: 8px; font-family: 'DejaVu Sans', 'Bitstream Vera Sans', 'Computer Modern Sans Serif', 'Lucida Grande', 'Verdana', 'Geneva', 'Lucid', 'Arial', 'Helvetica', 'Avant Garde', sans-serif; text-anchor: middle" x="73.8" y="178.553438" transform="rotate(-0 73.8 178.553438)">Time (s)</text>
    </g>
   </g>
   <g id="matplotlib.axis_4">
    <g id="ytick_5">
     <g id="line2d_10">
      <g>
       <use xlink:href="#m5adf3cc0de" x="18" y="160.2" style="stroke: #000000; stroke-width: 0.8"/>
      </g>
     </g>
     <g id="text_12">
      <text style="font-size: 7px; font-family: 'DejaVu Sans', 'Bitstream Vera Sans', 'Computer Modern Sans Serif', 'Lucida Grande', 'Verdana', 'Geneva', 'Lucid', 'Arial', 'Helvetica', 'Avant Garde', sans-serif; text-anchor: end" x="14" y="162.859453" transform="rotate(-0 14 162.859453)">0</text>
     </g>
    </g>
    <g id="ytick_6">
     <g id="line2d_11">
      <g>
       <use xlink:href="#m5adf3cc0de" x="18" y="135.633292" style="stroke: #000000; stroke-width: 0.8"/>
      </g>
     </g>
     <g id="text_13">
      <text style="font-size: 7px; font-family: 'DejaVu Sans', 'Bitstream Vera Sans', 'Computer Modern Sans Serif', 'Lucida Grande', 'Verdana', 'Geneva', 'Lucid', 'Arial', 'Helvetica', 'Avant Garde', sans-serif; text-anchor: end" x="14" y="138.292745" transform="rotate(-0 14 138.292745)">2</text>
     </g>
    </g>
    <g id="ytick_7">
     <g id="line2d_12">
      <g>
       <use xlink:href="#m5adf3cc0de" x="18" y="111.066585" style="stroke: #000000; stroke-width: 0.8"/>
      </g>
     </g>
     <g id="text_14">
      <text style="font-size: 7px; font-family: 'DejaVu Sans', 'Bitstream Vera Sans', 'Computer Modern Sans Serif', 'Lucida Grande', 'Verdana', 'Geneva', 'Lucid', 'Arial', 'Helvetica', 'Avant Garde', sans-serif; text-anchor: end" x="14" y="113.726038" transform="rotate(-0 14 113.726038)">4</text>
     </g>
    </g>
    <g id="text_15">
     <text style="font-size: 8px; font-family: 'DejaVu Sans', 'Bitstream Vera Sans', 'Computer Modern Sans Serif', 'Lucida Grande', 'Verdana', 'Geneva', 'Lucid', 'Arial', 'Helvetica', 'Avant Garde', sans-serif; text-anchor: middle" x="6.3825" y="127.2" transform="rotate(-90 6.3825 127.2)">Firing rate (Hz)</text>
    </g>
   </g>
   <g id="LineCollection_1">
    <path d="M 22.65 157.244192 
L 22.65 143.502442 
" clip-path="url(#pf7e6e75614)" style="fill: none; stroke: #f5a21e; stroke-width: 0.7"/>
    <path d="M 31.95 140.324497 
L 31.95 127.666527 
" clip-path="url(#pf7e6e75614)" style="fill: none; stroke: #f5a21e; stroke-width: 0.7"/>
    <path d="M 41.25 152.707802 
L 41.25 141.48771 
" clip-path="url(#pf7e6e75614)" style="fill: none; stroke: #f5a21e; stroke-width: 0.7"/>
    <path d="M 50.55 148.298026 
L 50.55 132.795242 
" clip-path="url(#pf7e6e75614)" style="fill: none; stroke: #f5a21e; stroke-width: 0.7"/>
    <path d="M 59.85 144.4617 
L 59.85 116.978201 
" clip-path="url(#pf7e6e75614)" style="fill: none; stroke: #f5a21e; stroke-width: 0.7"/>
    <path d="M 69.15 146.761574 
L 69.15 134.331694 
" clip-path="url(#pf7e6e75614)" style="fill: none; stroke: #f5a21e; stroke-width: 0.7"/>
    <path d="M 78.45 131.341434 
L 78.45 97.342857 
" clip-path="url(#pf7e6e75614)" style="fill: none; stroke: #f5a21e; stroke-width: 0.7"/>
    <path d="M 87.75 131.41141 
L 87.75 103.824003 
" clip-path="url(#pf7e6e75614)" style="fill: none; stroke: #f5a21e; stroke-width: 0.7"/>
    <path d="M 97.05 137.451394 
L 97.05 117.437386 
" clip-path="url(#pf7e6e75614)" style="fill: none; stroke: #f5a21e; stroke-width: 0.7"/>
    <path d="M 106.35 143.104477 
L 106.35 124.886546 
" clip-path="url(#pf7e6e75614)" style="fill: none; stroke: #f5a21e; stroke-width: 0.7"/>
    <path d="M 115.65 141.83864 
L 115.65 126.152384 
" clip-path="url(#pf7e6e75614)" style="fill: none; stroke: #f5a21e; stroke-width: 0.7"/>
    <path d="M 124.95 146.761574 
L 124.95 134.331694 
" clip-path="url(#pf7e6e75614)" style="fill: none; stroke: #f5a21e; stroke-width: 0.7"/>
   </g>
   <g id="line2d_13">
    <defs>
     <path id="m658e702db4" d="M 1.3 0 
L -1.3 -0 
" style="stroke: #f5a21e; stroke-width: 0.6"/>
    </defs>
    <g clip-path="url(#pf7e6e75614)">
     <use xlink:href="#m658e702db4" x="22.65" y="157.244192" style="fill: #f5a21e; stroke: #f5a21e; stroke-width: 0.6"/>
     <use xlink:href="#m658e702db4" x="31.95" y="140.324497" style="fill: #f5a21e; stroke: #f5a21e; stroke-width: 0.6"/>
     <use xlink:href="#m658e702db4" x="41.25" y="152.707802" style="fill: #f5a21e; stroke: #f5a21e; stroke-width: 0.6"/>
     <use xlink:href="#m658e702db4" x="50.55" y="148.298026" style="fill: #f5a21e; stroke: #f5a21e; stroke-width: 0.6"/>
     <use xlink:href="#m658e702db4" x="59.85" y="144.4617" style="fill: #f5a21e; stroke: #f5a21e; stroke-width: 0.6"/>
     <use xlink:href="#m658e702db4" x="69.15" y="146.761574" style="fill: #f5a21e; stroke: #f5a21e; stroke-width: 0.6"/>
     <use xlink:href="#m658e702db4" x="78.45" y="131.341434" style="fill: #f5a21e; stroke: #f5a21e; stroke-width: 0.6"/>
     <use xlink:href="#m658e702db4" x="87.75" y="131.41141" style="fill: #f5a21e; stroke: #f5a21e; stroke-width: 0.6"/>
     <use xlink:href="#m658e702db4" x="97.05" y="137.451394" style="fill: #f5a21e; stroke: #f5a21e; stroke-width: 0.6"/>
     <use xlink:href="#m658e702db4" x="106.35" y="143.104477" style="fill: #f5a21e; stroke: #f5a21e; stroke-width: 0.6"/>
     <use xlink:href="#m658e702db4" x="115.65" y="141.83864" style="fill: #f5a21e; stroke: #f5a21e; stroke-width: 0.6"/>
     <use xlink:href="#m658e702db4" x="124.95" y="146.761574" style="fill: #f5a21e; stroke: #f5a21e; stroke-width: 0.6"/>
    </g>
   </g>
   <g id="line2d_14">
    <g clip-path="url(#pf7e6e75614)">
     <use xlink:href="#m658e702db4" x="22.65" y="143.502442" style="fill: #f5a21e; stroke: #f5a21e; stroke-width: 0.6"/>
     <use xlink:href="#m658e702db4" x="31.95" y="127.666527" style="fill: #f5a21e; stroke: #f5a21e; stroke-width: 0.6"/>
     <use xlink:href="#m658e702db4" x="41.25" y="141.48771" style="fill: #f5a21e; stroke: #f5a21e; stroke-width: 0.6"/>
     <use xlink:href="#m658e702db4" x="50.55" y="132.795242" style="fill: #f5a21e; stroke: #f5a21e; stroke-width: 0.6"/>
     <use xlink:href="#m658e702db4" x="59.85" y="116.978201" style="fill: #f5a21e; stroke: #f5a21e; stroke-width: 0.6"/>
     <use xlink:href="#m658e702db4" x="69.15" y="134.331694" style="fill: #f5a21e; stroke: #f5a21e; stroke-width: 0.6"/>
     <use xlink:href="#m658e702db4" x="78.45" y="97.342857" style="fill: #f5a21e; stroke: #f5a21e; stroke-width: 0.6"/>
     <use xlink:href="#m658e702db4" x="87.75" y="103.824003" style="fill: #f5a21e; stroke: #f5a21e; stroke-width: 0.6"/>
     <use xlink:href="#m658e702db4" x="97.05" y="117.437386" style="fill: #f5a21e; stroke: #f5a21e; stroke-width: 0.6"/>
     <use xlink:href="#m658e702db4" x="106.35" y="124.886546" style="fill: #f5a21e; stroke: #f5a21e; stroke-width: 0.6"/>
     <use xlink:href="#m658e702db4" x="115.65" y="126.152384" style="fill: #f5a21e; stroke: #f5a21e; stroke-width: 0.6"/>
     <use xlink:href="#m658e702db4" x="124.95" y="134.331694" style="fill: #f5a21e; stroke: #f5a21e; stroke-width: 0.6"/>
    </g>
   </g>
   <g id="LineCollection_2">
    <path d="M 22.65 146.761574 
L 22.65 134.331694 
" clip-path="url(#pf7e6e75614)" style="fill: none; stroke: #134b64; stroke-width: 0.7"/>
    <path d="M 31.95 146.380038 
L 31.95 128.162107 
" clip-path="url(#pf7e6e75614)" style="fill: none; stroke: #134b64; stroke-width: 0.7"/>
    <path d="M 41.25 145.114201 
L 41.25 129.427945 
" clip-path="url(#pf7e6e75614)" style="fill: none; stroke: #134b64; stroke-width: 0.7"/>
    <path d="M 50.55 140.868905 
L 50.55 120.570996 
" clip-path="url(#pf7e6e75614)" style="fill: none; stroke: #134b64; stroke-width: 0.7"/>
    <path d="M 59.85 135.008974 
L 59.85 119.879806 
" clip-path="url(#pf7e6e75614)" style="fill: none; stroke: #134b64; stroke-width: 0.7"/>
    <path d="M 69.15 150.695589 
L 69.15 130.397679 
" clip-path="url(#pf7e6e75614)" style="fill: none; stroke: #134b64; stroke-width: 0.7"/>
    <path d="M 78.45 160.2 
L 78.45 160.2 
" clip-path="url(#pf7e6e75614)" style="fill: none; stroke: #134b64; stroke-width: 0.7"/>
    <path d="M 87.75 157.961354 
L 87.75 149.336401 
" clip-path="url(#pf7e6e75614)" style="fill: none; stroke: #134b64; stroke-width: 0.7"/>
    <path d="M 97.05 157.961354 
L 97.05 149.336401 
" clip-path="url(#pf7e6e75614)" style="fill: none; stroke: #134b64; stroke-width: 0.7"/>
    <path d="M 106.35 157.244192 
L 106.35 143.502442 
" clip-path="url(#pf7e6e75614)" style="fill: none; stroke: #134b64; stroke-width: 0.7"/>
    <path d="M 115.65 154.37314 
L 115.65 139.822372 
" clip-path="url(#pf7e6e75614)" style="fill: none; stroke: #134b64; stroke-width: 0.7"/>
    <path d="M 124.95 155.447794 
L 124.95 145.29884 
" clip-path="url(#pf7e6e75614)" style="fill: none; stroke: #134b64; stroke-width: 0.7"/>
   </g>
   <g id="line2d_15">
    <defs>
     <path id="m92c7c1f8e9" d="M 1.3 0 
L -1.3 -0 
" style="stroke: #134b64; stroke-width: 0.6"/>
    </defs>
    <g clip-path="url(#pf7e6e75614)">
     <use xlink:href="#m92c7c1f8e9" x="22.65" y="146.761574" style="fill: #134b64; stroke: #134b64; stroke-width: 0.6"/>
     <use xlink:href="#m92c7c1f8e9" x="31.95" y="146.380038" style="fill: #134b64; stroke: #134b64; stroke-width: 0.6"/>
     <use xlink:href="#m92c7c1f8e9" x="41.25" y="145.114201" style="fill: #134b64; stroke: #134b64; stroke-width: 0.6"/>
     <use xlink:href="#m92c7c1f8e9" x="50.55" y="140.868905" style="fill: #134b64; stroke: #134b64; stroke-width: 0.6"/>
     <use xlink:href="#m92c7c1f8e9" x="59.85" y="135.008974" style="fill: #134b64; stroke: #134b64; stroke-width: 0.6"/>
     <use xlink:href="#m92c7c1f8e9" x="69.15" y="150.695589" style="fill: #134b64; stroke: #134b64; stroke-width: 0.6"/>
     <use xlink:href="#m92c7c1f8e9" x="78.45" y="160.2" style="fill: #134b64; stroke: #134b64; stroke-width: 0.6"/>
     <use xlink:href="#m92c7c1f8e9" x="87.75" y="157.961354" style="fill: #134b64; stroke: #134b64; stroke-width: 0.6"/>
     <use xlink:href="#m92c7c1f8e9" x="97.05" y="157.961354" style="fill: #134b64; stroke: #134b64; stroke-width: 0.6"/>
     <use xlink:href="#m92c7c1f8e9" x="106.35" y="157.244192" style="fill: #134b64; stroke: #134b64; stroke-width: 0.6"/>
     <use xlink:href="#m92c7c1f8e9" x="115.65" y="154.37314" style="fill: #134b64; stroke: #134b64; stroke-width: 0.6"/>
     <use xlink:href="#m92c7c1f8e9" x="124.95" y="155.447794" style="fill: #134b64; stroke: #134b64; stroke-width: 0.6"/>
    </g>
   </g>
   <g id="line2d_16">
    <g clip-path="url(#pf7e6e75614)">
     <use xlink:href="#m92c7c1f8e9" x="22.65" y="134.331694" style="fill: #134b64; stroke: #134b64; stroke-width: 0.6"/>
     <use xlink:href="#m92c7c1f8e9" x="31.95" y="128.162107" style="fill: #134b64; stroke: #134b64; stroke-width: 0.6"/>
     <use xlink:href="#m92c7c1f8e9" x="41.25" y="129.427945" style="fill: #134b64; stroke: #134b64; stroke-width: 0.6"/>
     <use xlink:href="#m92c7c1f8e9" x="50.55" y="120.570996" style="fill: #134b64; stroke: #134b64; stroke-width: 0.6"/>
     <use xlink:href="#m92c7c1f8e9" x="59.85" y="119.879806" style="fill: #134b64; stroke: #134b64; stroke-width: 0.6"/>
     <use xlink:href="#m92c7c1f8e9" x="69.15" y="130.397679" style="fill: #134b64; stroke: #134b64; stroke-width: 0.6"/>
     <use xlink:href="#m92c7c1f8e9" x="78.45" y="160.2" style="fill: #134b64; stroke: #134b64; stroke-width: 0.6"/>
     <use xlink:href="#m92c7c1f8e9" x="87.75" y="149.336401" style="fill: #134b64; stroke: #134b64; stroke-width: 0.6"/>
     <use xlink:href="#m92c7c1f8e9" x="97.05" y="149.336401" style="fill: #134b64; stroke: #134b64; stroke-width: 0.6"/>
     <use xlink:href="#m92c7c1f8e9" x="106.35" y="143.502442" style="fill: #134b64; stroke: #134b64; stroke-width: 0.6"/>
     <use xlink:href="#m92c7c1f8e9" x="115.65" y="139.822372" style="fill: #134b64; stroke: #134b64; stroke-width: 0.6"/>
     <use xlink:href="#m92c7c1f8e9" x="124.95" y="145.29884" style="fill: #134b64; stroke: #134b64; stroke-width: 0.6"/>
    </g>
   </g>
   <g id="line2d_17">
    <path d="M 22.65 150.373317 
L 31.95 133.995512 
L 41.25 147.097756 
L 50.55 140.546634 
L 59.85 130.719951 
L 69.15 140.546634 
L 78.45 114.342146 
L 87.75 117.617707 
L 97.05 127.44439 
L 106.35 133.995512 
L 115.65 133.995512 
L 124.95 140.546634 
" clip-path="url(#pf7e6e75614)" style="fill: none; stroke: #f5a21e; stroke-width: 1.1; stroke-linecap: square"/>
    <defs>
     <path id="m4ea2758053" d="M 0 0.75 
C 0.198902 0.75 0.389685 0.670975 0.53033 0.53033 
C 0.670975 0.389685 0.75 0.198902 0.75 0 
C 0.75 -0.198902 0.670975 -0.389685 0.53033 -0.53033 
C 0.389685 -0.670975 0.198902 -0.75 0 -0.75 
C -0.198902 -0.75 -0.389685 -0.670975 -0.53033 -0.53033 
C -0.670975 -0.389685 -0.75 -0.198902 -0.75 0 
C -0.75 0.198902 -0.670975 0.389685 -0.53033 0.53033 
C -0.389685 0.670975 -0.198902 0.75 0 0.75 
z
" style="stroke: #f5a21e"/>
    </defs>
    <g clip-path="url(#pf7e6e75614)">
     <use xlink:href="#m4ea2758053" x="22.65" y="150.373317" style="fill: #f5a21e; stroke: #f5a21e"/>
     <use xlink:href="#m4ea2758053" x="31.95" y="133.995512" style="fill: #f5a21e; stroke: #f5a21e"/>
     <use xlink:href="#m4ea2758053" x="41.25" y="147.097756" style="fill: #f5a21e; stroke: #f5a21e"/>
     <use xlink:href="#m4ea2758053" x="50.55" y="140.546634" style="fill: #f5a21e; stroke: #f5a21e"/>
     <use xlink:href="#m4ea2758053" x="59.85" y="130.719951" style="fill: #f5a21e; stroke: #f5a21e"/>
     <use xlink:href="#m4ea2758053" x="69.15" y="140.546634" style="fill: #f5a21e; stroke: #f5a21e"/>
     <use xlink:href="#m4ea2758053" x="78.45" y="114.342146" style="fill: #f5a21e; stroke: #f5a21e"/>
     <use xlink:href="#m4ea2758053" x="87.75" y="117.617707" style="fill: #f5a21e; stroke: #f5a21e"/>
     <use xlink:href="#m4ea2758053" x="97.05" y="127.44439" style="fill: #f5a21e; stroke: #f5a21e"/>
     <use xlink:href="#m4ea2758053" x="106.35" y="133.995512" style="fill: #f5a21e; stroke: #f5a21e"/>
     <use xlink:href="#m4ea2758053" x="115.65" y="133.995512" style="fill: #f5a21e; stroke: #f5a21e"/>
     <use xlink:href="#m4ea2758053" x="124.95" y="140.546634" style="fill: #f5a21e; stroke: #f5a21e"/>
    </g>
   </g>
   <g id="line2d_18">
    <path d="M 22.65 140.546634 
L 31.95 137.271073 
L 41.25 137.271073 
L 50.55 130.719951 
L 59.85 127.44439 
L 69.15 140.546634 
L 78.45 160.2 
L 87.75 153.648878 
L 97.05 153.648878 
L 106.35 150.373317 
L 115.65 147.097756 
L 124.95 150.373317 
" clip-path="url(#pf7e6e75614)" style="fill: none; stroke: #134b64; stroke-width: 1.1; stroke-linecap: square"/>
    <defs>
     <path id="m0ae3460e5b" d="M 0 0.75 
C 0.198902 0.75 0.389685 0.670975 0.53033 0.53033 
C 0.670975 0.389685 0.75 0.198902 0.75 0 
C 0.75 -0.198902 0.670975 -0.389685 0.53033 -0.53033 
C 0.389685 -0.670975 0.198902 -0.75 0 -0.75 
C -0.198902 -0.75 -0.389685 -0.670975 -0.53033 -0.53033 
C -0.670975 -0.389685 -0.75 -0.198902 -0.75 0 
C -0.75 0.198902 -0.670975 0.389685 -0.53033 0.53033 
C -0.389685 0.670975 -0.198902 0.75 0 0.75 
z
" style="stroke: #134b64"/>
    </defs>
    <g clip-path="url(#pf7e6e75614)">
     <use xlink:href="#m0ae3460e5b" x="22.65" y="140.546634" style="fill: #134b64; stroke: #134b64"/>
     <use xlink:href="#m0ae3460e5b" x="31.95" y="137.271073" style="fill: #134b64; stroke: #134b64"/>
     <use xlink:href="#m0ae3460e5b" x="41.25" y="137.271073" style="fill: #134b64; stroke: #134b64"/>
     <use xlink:href="#m0ae3460e5b" x="50.55" y="130.719951" style="fill: #134b64; stroke: #134b64"/>
     <use xlink:href="#m0ae3460e5b" x="59.85" y="127.44439" style="fill: #134b64; stroke: #134b64"/>
     <use xlink:href="#m0ae3460e5b" x="69.15" y="140.546634" style="fill: #134b64; stroke: #134b64"/>
     <use xlink:href="#m0ae3460e5b" x="78.45" y="160.2" style="fill: #134b64; stroke: #134b64"/>
     <use xlink:href="#m0ae3460e5b" x="87.75" y="153.648878" style="fill: #134b64; stroke: #134b64"/>
     <use xlink:href="#m0ae3460e5b" x="97.05" y="153.648878" style="fill: #134b64; stroke: #134b64"/>
     <use xlink:href="#m0ae3460e5b" x="106.35" y="150.373317" style="fill: #134b64; stroke: #134b64"/>
     <use xlink:href="#m0ae3460e5b" x="115.65" y="147.097756" style="fill: #134b64; stroke: #134b64"/>
     <use xlink:href="#m0ae3460e5b" x="124.95" y="150.373317" style="fill: #134b64; stroke: #134b64"/>
    </g>
   </g>
   <g id="patch_5">
    <path d="M 18 160.2 
L 18 94.2 
" style="fill: none; stroke: #000000; stroke-width: 0.8; stroke-linejoin: miter; stroke-linecap: square"/>
   </g>
   <g id="patch_6">
    <path d="M 18 160.2 
L 129.6 160.2 
" style="fill: none; stroke: #000000; stroke-width: 0.8; stroke-linejoin: miter; stroke-linecap: square"/>
   </g>
   <g id="legend_1">
    <g id="LineCollection_3">
     <path d="M 95.4225 105.059063 
L 95.4225 99.059063 
" style="fill: none; stroke: #f5a21e; stroke-width: 0.7"/>
    </g>
    <g id="line2d_19">
     <g>
      <use xlink:href="#m658e702db4" x="95.4225" y="105.059063" style="fill: #f5a21e; stroke: #f5a21e; stroke-width: 0.6"/>
     </g>
    </g>
    <g id="line2d_20">
     <g>
      <use xlink:href="#m658e702db4" x="95.4225" y="99.059063" style="fill: #f5a21e; stroke: #f5a21e; stroke-width: 0.6"/>
     </g>
    </g>
    <g id="line2d_21">
     <path d="M 92.4225 102.059063 
L 98.4225 102.059063 
" style="fill: none; stroke: #f5a21e; stroke-width: 1.1; stroke-linecap: square"/>
    </g>
    <g id="line2d_22">
     <g>
      <use xlink:href="#m4ea2758053" x="95.4225" y="102.059063" style="fill: #f5a21e; stroke: #f5a21e"/>
     </g>
    </g>
    <g id="text_16">
     <text style="font-size: 6px; font-family: 'DejaVu Sans', 'Bitstream Vera Sans', 'Computer Modern Sans Serif', 'Lucida Grande', 'Verdana', 'Geneva', 'Lucid', 'Arial', 'Helvetica', 'Avant Garde', sans-serif; text-anchor: start" x="101.4225" y="104.159063" transform="rotate(-0 101.4225 104.159063)">novel</text>
    </g>
    <g id="LineCollection_4">
     <path d="M 95.4225 111.765938 
L 95.4225 105.765938 
" style="fill: none; stroke: #134b64; stroke-width: 0.7"/>
    </g>
    <g id="line2d_23">
     <g>
      <use xlink:href="#m92c7c1f8e9" x="95.4225" y="111.765938" style="fill: #134b64; stroke: #134b64; stroke-width: 0.6"/>
     </g>
    </g>
    <g id="line2d_24">
     <g>
      <use xlink:href="#m92c7c1f8e9" x="95.4225" y="105.765938" style="fill: #134b64; stroke: #134b64; stroke-width: 0.6"/>
     </g>
    </g>
    <g id="line2d_25">
     <path d="M 92.4225 108.765938 
L 98.4225 108.765938 
" style="fill: none; stroke: #134b64; stroke-width: 1.1; stroke-linecap: square"/>
    </g>
    <g id="line2d_26">
     <g>
      <use xlink:href="#m0ae3460e5b" x="95.4225" y="108.765938" style="fill: #134b64; stroke: #134b64"/>
     </g>
    </g>
    <g id="text_17">
     <text style="font-size: 6px; font-family: 'DejaVu Sans', 'Bitstream Vera Sans', 'Computer Modern Sans Serif', 'Lucida Grande', 'Verdana', 'Geneva', 'Lucid', 'Arial', 'Helvetica', 'Avant Garde', sans-serif; text-anchor: start" x="101.4225" y="110.865938" transform="rotate(-0 101.4225 110.865938)">familiar</text>
    </g>
   </g>
   <g id="line2d_27">
    <path d="M 55.2 160.2 
L 55.2 94.2 
" clip-path="url(#pf7e6e75614)" style="fill: none; stroke-dasharray: 4.44,1.92; stroke-dashoffset: 0; stroke: #ff0000; stroke-width: 1.2"/>
   </g>
  </g>
 </g>
 <defs>
  <clipPath id="p855f0b6967">
   <rect x="18" y="21.6" width="111.6" height="66"/>
  </clipPath>
  <clipPath id="pf7e6e75614">
   <rect x="18" y="94.2" width="111.6" height="66"/>
  </clipPath>
 </defs>
</svg>
